<svg xmlns="http://www.w3.org/2000/svg" width="40" height="40" viewBox="0 0 40 40" fill="none">
  <circle cx="20" cy="20" r="18" fill="#4285F4" fill-opacity="0.1" stroke="#4285F4" stroke-width="2"/>
  <path d="M12 20C12 16.6863 14.6863 14 18 14H22C25.3137 14 28 16.6863 28 20V22C28 25.3137 25.3137 28 22 28H18C14.6863 28 12 25.3137 12 22V20Z" fill="#4285F4"/>
  <circle cx="15" cy="18" r="2" fill="white"/>
  <circle cx="25" cy="18" r="2" fill="white"/>
  <path d="M16 24C16.5 25 18 26 20 26C22 26 23.5 25 24 24" stroke="white" stroke-width="1.5" stroke-linecap="round"/>
  <!-- 음파 라인 -->
  <path d="M7 14C5 17 4 20 5 24" stroke="#4285F4" stroke-width="1.5" stroke-linecap="round"/>
  <path d="M4 16C2 19 2 22 4 25" stroke="#4285F4" stroke-width="1.5" stroke-linecap="round"/>
  <path d="M33 14C35 17 36 20 35 24" stroke="#4285F4" stroke-width="1.5" stroke-linecap="round"/>
  <path d="M36 16C38 19 38 22 36 25" stroke="#4285F4" stroke-width="1.5" stroke-linecap="round"/>
</svg> 